<svg xmlns="http://www.w3.org/2000/svg" width="105.633" height="16" viewBox="0 0 105.633 16">
  <g id="Logo" transform="translate(-1.3 -0.2)">
    <g id="Group_2802" data-name="Group 2802" transform="translate(91.75 0.2)">
      <path id="Path_11405" data-name="Path 11405" d="M111.3,8.037a18.343,18.343,0,0,1,7.591,8.163,17.523,17.523,0,0,1,7.591-8.163L118.891.2Z" transform="translate(-111.3 -0.2)" fill="#ddd"/>
    </g>
    <g id="Group_2803" data-name="Group 2803" transform="translate(1.3 2.313)">
      <path id="Path_11406" data-name="Path 11406" d="M7.482,14.6H5.839V9.785L1.3,2.9H3.413L6.7,8.126,9.909,2.9h2.113L7.482,9.785Z" transform="translate(-1.3 -2.9)" fill="#ddd"/>
    </g>
    <g id="Group_2804" data-name="Group 2804" transform="translate(10.613 2)">
      <path id="Path_11407" data-name="Path 11407" d="M18.522,2.5c-.783,0-5.322.413-5.322,6.285,0,5.541,4.539,6.037,5.4,6.037.939,0,5.4-.579,5.4-6.2C23.922,3.327,19.93,2.5,18.522,2.5ZM18.6,13.333c-1.643,0-3.756-.992-3.756-4.631,0-3.308,2.035-4.631,3.678-4.631,1.487,0,3.756,1.075,3.756,4.8C22.278,12.506,19.774,13.333,18.6,13.333Z" transform="translate(-13.2 -2.5)" fill="#ddd"/>
    </g>
    <g id="Group_2805" data-name="Group 2805" transform="translate(23.107 2.313)">
      <path id="Path_11408" data-name="Path 11408" d="M29.543,14.6H27.9V2.9h1.8V8.541L34.865,2.9h2.191L32.517,7.877,37.369,14.6H35.256L31.265,8.955,29.543,10.7Z" transform="translate(-27.9 -2.9)" fill="#ddd"/>
    </g>
    <g id="Group_2806" data-name="Group 2806" transform="translate(31.49 2)">
      <path id="Path_11409" data-name="Path 11409" d="M43.578,2.5c-1.565.083-5.478.909-5.478,6.117,0,5.7,4.226,6.283,5.556,6.283,1.487,0,5.243-1.075,5.322-6.2C48.978,2.5,43.5,2.5,43.578,2.5Zm0,10.829c-1.565,0-3.756-.909-3.756-4.629,0-3.555,2.191-4.629,3.678-4.629,1.956,0,3.6,1.488,3.6,4.547C47.178,12.585,44.83,13.329,43.578,13.329Z" transform="translate(-38.1 -2.5)" fill="#ddd"/>
    </g>
    <g id="Group_2807" data-name="Group 2807" transform="translate(43.535 2)">
      <path id="Path_11410" data-name="Path 11410" d="M58.278,8.454h4.7v6.037h-1.33l-.157-1.075a4.434,4.434,0,0,1-3.678,1.406c-2.348,0-5.009-2.067-5.009-6.2,0-2.812,1.8-6.12,5.243-6.12,1.878,0,4.3.744,4.774,3.8H61.1a2.988,2.988,0,0,0-3.052-2.316c-1.8,0-3.522,1.158-3.522,4.714,0,3.391,1.956,4.631,3.443,4.631s2.9-.5,3.443-3.391H58.2Z" transform="translate(-52.8 -2.5)" fill="#ddd"/>
    </g>
    <g id="Group_2808" data-name="Group 2808" transform="translate(54.436 2.391)">
      <path id="Path_11411" data-name="Path 11411" d="M71.813,3h-2.27L66.1,14.7h1.8l.939-3.235h4.226L74.239,14.7h1.8ZM69.23,9.968l1.409-5.309.313.912,1.487,4.313H69.23Z" transform="translate(-66.1 -3)" fill="#ddd"/>
    </g>
    <g id="Group_2809" data-name="Group 2809" transform="translate(62.851 2.313)">
      <path id="Path_11412" data-name="Path 11412" d="M76.2,2.9h1.878c1.487,6.467,1.722,7.545,2.035,8.789h0c.235-1.161.861-2.653,2.27-8.789H84.1c1.643,6.467,1.878,7.545,2.27,8.872v-.083c.235-1.078.548-2.322,2.035-8.789h1.878L87.235,14.591H85.591c-1.409-5.141-1.565-5.8-2.27-8.54h0c-.548,2.156-.783,2.9-2.27,8.623H79.33Z" transform="translate(-76.2 -2.9)" fill="#ddd"/>
    </g>
    <g id="Group_2810" data-name="Group 2810" transform="translate(75.671 2.391)">
      <path id="Path_11413" data-name="Path 11413" d="M98.026,3H95.913L92,14.7h1.722l1.017-3.235h4.3l1.017,3.152h1.8ZM95.209,9.968l1.643-5.06,1.722,5.06Z" transform="translate(-92 -3)" fill="#ddd"/>
    </g>
  </g>
</svg>
